<?xml version="1.0" encoding="UTF-8" standalone="no"?>
<!-- Created with Inkscape (http://www.inkscape.org/) -->

<svg
   xmlns:dc="http://purl.org/dc/elements/1.1/"
   xmlns:cc="http://creativecommons.org/ns#"
   xmlns:rdf="http://www.w3.org/1999/02/22-rdf-syntax-ns#"
   xmlns:svg="http://www.w3.org/2000/svg"
   xmlns="http://www.w3.org/2000/svg"
   xmlns:sodipodi="http://sodipodi.sourceforge.net/DTD/sodipodi-0.dtd"
   xmlns:inkscape="http://www.inkscape.org/namespaces/inkscape"
   width="399.99951"
   height="104.66264"
   viewBox="0 0 105.8332 27.69199"
   version="1.1"
   id="svg831"
   inkscape:version="0.92.5 (2060ec1f9f, 2020-04-08)"
   sodipodi:docname="logo2.svg">
  <defs
     id="defs825" />
  <sodipodi:namedview
     id="base"
     pagecolor="#ffffff"
     bordercolor="#666666"
     borderopacity="1.0"
     inkscape:pageopacity="0.0"
     inkscape:pageshadow="2"
     inkscape:zoom="0.35"
     inkscape:cx="-162.85756"
     inkscape:cy="-313.38294"
     inkscape:document-units="mm"
     inkscape:current-layer="layer1"
     showgrid="false"
     units="px"
     fit-margin-top="0"
     fit-margin-left="0"
     fit-margin-right="0"
     fit-margin-bottom="0"
     inkscape:window-width="1366"
     inkscape:window-height="721"
     inkscape:window-x="-4"
     inkscape:window-y="-4"
     inkscape:window-maximized="1" />
  <metadata
     id="metadata828">
    <rdf:RDF>
      <cc:Work
         rdf:about="">
        <dc:format>image/svg+xml</dc:format>
        <dc:type
           rdf:resource="http://purl.org/dc/dcmitype/StillImage" />
        <dc:title></dc:title>
      </cc:Work>
    </rdf:RDF>
  </metadata>
  <g
     inkscape:label="Capa 1"
     inkscape:groupmode="layer"
     id="layer1"
     transform="translate(-18.898919,-38.225434)">
    <path
       style="fill:#ffffff;stroke-width:0.08100896"
       d="m 87.077398,38.225434 v 6.630917 c 0,3.646932 0.02522,6.655908 0.05593,6.686626 0.03071,0.03056 0.677807,0.04585 1.437934,0.03365 l 1.382038,-0.02203 0.04046,-4.334006 c 0.02286,-2.450114 0.0701,-4.263568 0.108503,-4.171973 0.03741,0.0891 0.170727,0.435417 0.296222,0.769579 0.125502,0.33416 0.363191,0.953849 0.528346,1.377125 0.165159,0.423269 0.391639,1.040242 0.503217,1.371116 0.11159,0.330871 0.320516,0.877822 0.464449,1.21527 l 0.2618,0.613553 1.013174,0.02258 c 0.776764,0.01731 1.034352,-0.0032 1.104406,-0.08757 0.07596,-0.09151 0.843962,-2.037145 1.285356,-3.25638 0.06456,-0.17822 0.200753,-0.542847 0.302591,-0.810179 0.101846,-0.267329 0.233008,-0.650103 0.291671,-0.850599 0.05865,-0.200501 0.127569,-0.40095 0.153115,-0.445507 0.02548,-0.04455 0.06474,1.869301 0.08702,4.252991 l 0.04046,4.334009 h 1.336703 1.336526 l 0.02077,-6.662958 0.02077,-6.663142 H 97.54051 95.932169 l -0.130178,0.303864 c -0.180351,0.420577 -1.433179,3.56124 -1.559182,3.908709 -0.05656,0.155943 -0.264236,0.684571 -0.461719,1.174672 -0.197472,0.490105 -0.386236,0.963944 -0.419282,1.053052 -0.04455,0.120075 -0.399063,-0.687433 -1.369669,-3.11892 l -1.309563,-3.280777 -1.802413,-0.02185 z m -20.083359,0.0011 -2.899537,0.0213 -2.899355,0.0213 -0.01875,1.053053 c -0.02786,1.571498 -0.180449,1.417724 1.406255,1.417724 h 1.343988 l -0.03642,3.544038 c -0.04022,3.917287 -0.03485,3.875836 -0.57441,4.415392 -0.346179,0.346172 -0.760119,0.465829 -1.603611,0.463715 -0.512553,-0.0013 -0.818274,-0.05081 -1.246219,-0.202089 -0.915022,-0.323464 -0.850601,-0.412021 -0.850601,1.169572 v 1.370758 l 0.263263,0.05916 c 0.144783,0.03252 0.573151,0.08737 0.951828,0.121798 h 1.8e-4 c 1.16065,0.105519 2.80003,0.02672 3.389468,-0.162946 1.311918,-0.42207 2.128687,-1.183964 2.541416,-2.370463 0.174482,-0.50159 0.178144,-0.603154 0.205002,-5.716413 z m -44.479629,0.0021 -0.223392,0.318429 c -1.023365,1.45904 -1.400705,2.041655 -1.362561,2.103375 0.02453,0.03966 0.76465,0.07748 1.644941,0.08411 1.800311,0.01352 2.01559,0.06575 2.355895,0.572406 0.159632,0.237958 0.185399,0.361655 0.158941,0.76958 -0.06847,1.056352 -0.398494,1.276151 -2.007792,1.336343 l -1.093651,0.04079 -0.02257,1.154463 -0.0224,1.154279 0.994611,7.41e-4 c 2.255256,0.0014 2.898261,0.360781 2.898261,1.619633 0,0.584945 -0.157402,0.968528 -0.506681,1.234933 -0.509168,0.388361 -0.981694,0.466263 -2.829441,0.466263 h -1.686449 v 1.208352 c 0,0.890909 0.02657,1.219197 0.101228,1.24932 v -3.44e-4 c 0.184305,0.07439 2.920297,0.05382 3.868292,-0.02914 1.539106,-0.134626 2.397195,-0.475148 3.196663,-1.268255 0.831839,-0.82523 1.226342,-2.133345 1.02811,-3.4084 -0.114456,-0.736225 -0.307702,-1.168918 -0.743545,-1.664055 -0.283708,-0.322311 -1.003116,-0.759628 -1.494193,-0.908496 -0.14345,-0.04348 -0.131094,-0.07002 0.121618,-0.262717 0.489013,-0.37288 0.898669,-0.856113 1.116048,-1.316315 0.187924,-0.397829 0.210548,-0.545294 0.213013,-1.377124 0.0023,-0.874861 -0.01228,-0.960847 -0.239231,-1.412809 -0.428024,-0.852396 -1.357871,-1.432142 -2.55052,-1.590339 -0.289605,-0.03841 -1.063954,-0.07106 -1.720858,-0.07247 z m -1.510031,0.01347 c -0.18296,-6.77e-4 -0.401146,9.41e-4 -0.657976,0.0049 l -1.437934,0.0222 -0.0086,2.025088 c -0.0047,1.113874 0.0085,2.055878 0.02932,2.093177 0.04603,0.08232 0.0817,0.04276 0.42712,-0.472998 1.264487,-1.8881 1.998622,-2.961867 2.195314,-3.211411 0.127975,-0.162351 0.232677,-0.336389 0.232677,-0.386701 0,-0.04902 -0.231079,-0.07231 -0.779959,-0.07427 z m 86.880281,0.0028 c -0.41402,-6.2e-4 -0.86854,3.87e-4 -1.34471,0.0033 l -3.46321,0.02112 v 1.134071 1.13407 l 0.93162,0.0406 0.93161,0.04042 0.021,4.270652 0.021,4.270651 -0.95254,0.02295 -0.95255,0.02277 -0.0228,1.089464 c -0.0125,0.599243 -0.005,1.136937 0.0179,1.194879 0.0557,0.145349 6.80942,0.156034 6.89911,0.01089 0.0462,-0.07467 0.0767,-1.774748 0.0402,-2.234456 -0.006,-0.07466 -0.25263,-0.101228 -0.93962,-0.101228 h -0.93162 v -4.284195 -4.284125 l 0.90868,-0.01348 c 0.49978,-0.0074 0.92671,-0.03154 0.94873,-0.05353 0.0314,-0.0314 0.034,-0.894999 0.007,-2.241197 -2.5e-4,-0.02544 -0.87752,-0.04189 -2.11957,-0.04369 z m -74.96171,0.02439 -0.02076,6.597051 c -0.01642,5.224151 4.23e-4,6.610718 0.08102,6.661869 0.133993,0.08507 8.334014,0.08401 8.468114,-0.0011 0.07819,-0.04964 0.098,-0.369886 0.08102,-1.315221 l -0.0224,-1.249498 -2.754247,-0.04042 -2.754431,-0.0406 -0.02186,-1.59997 -0.02203,-1.599786 h 2.594034 2.594031 v -1.295042 -1.295013 l -2.572002,-0.02148 -2.572185,-0.0213 V 41.955123 40.86147 l 2.754429,-0.04043 2.754249,-0.0406 v -1.255685 -1.255507 h -4.293403 z m 12.027811,0 -0.0012,6.585764 c -7.41e-4,3.622244 0.02003,6.620741 0.04625,6.663142 h 1.82e-4 c 0.05733,0.09277 2.545541,0.1027 2.690345,0.01073 0.07765,-0.04931 0.10541,-1.07343 0.121615,-4.493861 l 0.02077,-4.429775 0.241782,0.464807 c 0.132958,0.255619 0.428135,0.794963 0.655791,1.19852 0.227652,0.403563 0.60702,1.096181 0.843134,1.539162 0.236112,0.442989 0.455562,0.841729 0.487746,0.886283 0.03219,0.04455 0.478229,0.846557 0.991151,1.782214 0.512918,0.935653 1.033941,1.883512 1.157919,2.106287 0.123982,0.222775 0.265317,0.478015 0.313878,0.567127 0.232998,0.427527 0.210704,0.42171 1.649675,0.435315 0.745127,0.007 1.400728,-0.0175 1.456685,-0.05445 0.0803,-0.05314 0.09743,-1.441146 0.08102,-6.664233 l -0.02077,-6.597139 h -1.417759 -1.417727 l 0.0031,3.665657 c 0.0016,2.01611 -0.01667,3.66545 -0.0406,3.664747 -0.02391,-4.25e-4 -0.217424,-0.319358 -0.430028,-0.708772 -0.21268,-0.389428 -0.536064,-0.963297 -0.718677,-1.275183 -0.182615,-0.311882 -0.44119,-0.767582 -0.574775,-1.012634 -0.133583,-0.245047 -0.452128,-0.80996 -0.707859,-1.255507 -0.25573,-0.445549 -0.586374,-1.028776 -0.734626,-1.296105 -0.455834,-0.821955 -0.487307,-0.877738 -0.755015,-1.336707 l -0.259776,-0.445499 h -1.841018 z m 30.281805,0 -0.642858,1.944069 c -0.353632,1.069316 -0.772409,2.345345 -0.930527,2.835448 -0.158117,0.490104 -0.370996,1.127937 -0.473186,1.417542 -0.10219,0.289609 -0.52242,1.565631 -0.933799,2.835451 -0.41138,1.269815 -0.838264,2.563798 -0.948547,2.875684 -0.259805,0.734711 -0.414486,1.323122 -0.36176,1.375851 0.06556,0.06557 2.880662,0.0466 2.973636,-0.02005 0.04569,-0.03276 0.163703,-0.314775 0.262168,-0.62666 0.09847,-0.311887 0.283009,-0.895112 0.410189,-1.296106 l 0.231219,-0.729164 h 2.170372 2.170195 l 0.236497,0.76958 c 0.130011,0.423275 0.31664,1.024819 0.41474,1.336708 l 0.178242,0.567125 1.49874,0.02203 c 0.82427,0.0122 1.540267,-0.0059 1.591233,-0.04043 0.0653,-0.04417 -0.175159,-0.875621 -0.815096,-2.817061 -0.499338,-1.514856 -1.356765,-4.121326 -1.905289,-5.792138 -0.548523,-1.670811 -1.118116,-3.402351 -1.265703,-3.847901 l -0.268181,-0.809998 h -1.796235 z m 38.737914,0 -0.002,6.585764 c -8e-4,3.622243 0.0202,6.620741 0.0463,6.663142 h 1.8e-4 c 0.0572,0.09277 2.54572,0.102706 2.69052,0.01073 0.0777,-0.04931 0.10526,-1.073435 0.12144,-4.493861 l 0.021,-4.429775 0.24177,0.464807 c 0.13297,0.255614 0.42796,0.794963 0.65562,1.19852 0.22765,0.403563 0.6072,1.096181 0.84331,1.539162 0.23612,0.442989 0.45559,0.841911 0.48776,0.886465 0.0322,0.04456 0.47822,0.846557 0.99115,1.782213 0.51291,0.935654 1.03395,1.883331 1.15791,2.106106 0.124,0.222775 0.26512,0.478015 0.3137,0.567127 0.23299,0.427527 0.21088,0.42171 1.64986,0.435315 0.74513,0.007 1.40055,-0.01733 1.45648,-0.05428 0.0803,-0.05314 0.0974,-1.441333 0.081,-6.66442 l -0.0208,-6.597052 h -1.41755 -1.41772 l 0.003,3.665655 c 0.002,2.016111 -0.0165,3.665452 -0.0404,3.664748 -0.024,-4.23e-4 -0.21745,-0.319357 -0.43005,-0.708772 -0.21261,-0.389416 -0.53598,-0.963288 -0.7186,-1.27517 -0.18262,-0.311885 -0.44136,-0.7674 -0.57495,-1.012453 -0.13359,-0.245051 -0.45212,-0.810141 -0.70787,-1.255687 -0.25574,-0.445551 -0.58621,-1.028782 -0.73445,-1.296108 -0.45583,-0.821952 -0.4873,-0.877737 -0.75503,-1.336707 l -0.2598,-0.445507 h -1.8412 z m -36.971355,3.50468 0.269454,0.880455 c 0.389716,1.273832 0.615122,1.995308 0.892104,2.855841 0.13462,0.418202 0.22533,0.791906 0.201549,0.830389 -0.05642,0.09122 -2.684217,0.09141 -2.740594,1.83e-4 -0.02373,-0.03834 0.04325,-0.339124 0.148749,-0.668354 0.105487,-0.329235 0.309441,-0.981213 0.453149,-1.449041 0.143708,-0.467824 0.377058,-1.210345 0.518517,-1.650035 z m 23.425505,17.030662 c -1.865443,-3.44e-4 -48.851101,-3.44e-4 -57.071837,1.85e-4 l -2.288349,1.76e-4 v 3.510365 c 0,1.930704 0.0243,3.534657 0.05408,3.564425 v 2.65e-4 c 0.02977,0.02977 13.891345,0.0449 30.803599,0.03365 l 30.749517,-0.02021 0.0211,-3.54422 0.0212,-3.54422 z m -49.020101,1.542583 c 0.165039,-0.0034 0.356799,0.0109 0.487201,0.04585 0.171929,0.04614 0.174755,0.07529 0.182611,1.841932 0.0044,0.987249 -0.02278,1.842374 -0.06044,1.900373 -0.0474,0.07294 -0.226684,0.09793 -0.581509,0.08102 l -0.512873,-0.0244 -0.346649,-0.486108 c -0.19073,-0.267319 -0.576043,-0.823162 -0.856247,-1.235285 -0.280202,-0.412139 -0.536139,-0.749377 -0.568765,-0.749377 -0.03261,0 -0.06946,0.556016 -0.08174,1.235482 l -0.02241,1.235292 -0.506317,0.02405 -0.506318,0.02417 v -1.907657 c 0,-1.468149 0.02347,-1.909082 0.10141,-1.914758 0.0557,-0.004 0.368329,-0.0075 0.694936,-0.0067 0.643903,0.0011 0.596117,-0.02755 1.044313,0.621557 0.664951,0.963098 1.015082,1.414682 1.070531,1.380401 0.03414,-0.02112 0.06911,-0.465064 0.07775,-0.98641 0.0086,-0.521359 0.03446,-0.978144 0.05735,-1.015193 0.02376,-0.03846 0.162132,-0.06056 0.327168,-0.06427 z m 15.868976,0.0065 c 0.101539,0.0023 0.189852,0.01089 0.248695,0.02569 l 0.194082,0.0488 v 1.902011 1.902197 H 67.189756 66.66323 v -1.169756 c 0,-0.643413 -0.03303,-1.190326 -0.07337,-1.215271 -0.04035,-0.02497 -0.240564,0.303049 -0.44496,0.728801 l -0.371591,0.77413 -0.385429,-0.02479 -0.385427,-0.02463 -0.361212,-0.74937 c -0.198712,-0.412136 -0.390096,-0.749377 -0.425302,-0.749377 -0.0352,0 -0.06409,0.546773 -0.06409,1.215091 v 1.215084 h -0.47245 c -0.259908,0 -0.496824,-0.02417 -0.526526,-0.05388 -0.02969,-0.0297 -0.05408,-0.885705 -0.05408,-1.902191 v -1.848122 l 0.199178,-0.05009 c 0.146392,-0.03676 0.923782,-0.0075 1.152459,0.04348 0.0083,0.0017 0.208574,0.404372 0.445143,0.894472 0.236569,0.490105 0.468307,0.891201 0.515056,0.891201 0.04675,0 0.276786,-0.381787 0.511051,-0.848411 0.234273,-0.466623 0.469498,-0.875597 0.522886,-0.908674 0.100909,-0.06256 0.524308,-0.104422 0.828931,-0.0965 z m 6.158092,0.0086 c 0.360119,-0.0045 0.926878,0.03095 0.954744,0.07337 0.01079,0.01649 0.218731,0.303241 0.462076,0.637409 0.24334,0.334155 0.568415,0.79656 0.722421,1.027378 0.153996,0.230814 0.308996,0.401808 0.344281,0.379963 0.03529,-0.0218 0.06409,-0.490636 0.06409,-1.041943 0,-1.121247 -0.0109,-1.102163 0.607547,-1.063067 l 0.324075,0.02044 0.0217,1.918395 0.02185,1.918218 h -0.513963 c -0.556115,0 -0.695325,-0.0863 -0.979864,-0.60755 -0.07296,-0.133665 -0.295854,-0.461649 -0.49521,-0.728979 -0.199345,-0.267329 -0.458163,-0.642565 -0.57514,-0.833845 -0.116965,-0.191286 -0.251754,-0.334754 -0.299673,-0.318795 -0.0567,0.01886 -0.08872,0.451495 -0.09157,1.23894 l -0.0045,1.20981 -0.448784,0.02383 c -0.246822,0.0131 -0.474662,-0.0023 -0.50632,-0.03383 -0.03163,-0.03163 -0.05753,-0.889167 -0.05753,-1.905659 v -1.848121 l 0.186066,-0.04676 c 0.04648,-0.01164 0.143589,-0.01756 0.26363,-0.01915 z m 18.10144,0.0109 1.232016,0.0056 1.232014,0.0056 0.05264,0.256894 c 0.07022,0.343474 0.0108,0.414977 -0.371043,0.446055 l -0.32298,0.02621 v 1.215078 1.215095 l 0.344289,0.02497 c 0.342511,0.02479 0.344279,0.02643 0.344279,0.344282 v 0.319338 H 92.78856 91.533052 v -0.3193 c 0,-0.317823 0.0019,-0.319479 0.344286,-0.344282 l 0.344271,-0.02497 v -1.215096 -1.215078 l -0.344271,-0.02497 -0.344286,-0.02497 v -0.34523 z m -37.417592,0.0073 c 0.861033,0.0028 1.825834,0.111961 2.138151,0.266353 0.439277,0.217162 0.848042,0.681781 0.974582,1.107856 0.166357,0.560202 0.149825,0.802359 -0.08866,1.306488 -0.230992,0.488271 -0.617509,0.850806 -1.071441,1.005162 -0.165357,0.05624 -0.874744,0.120976 -1.576483,0.143831 l -1.275898,0.04173 v -1.913482 c 0,-1.471084 0.02339,-1.915756 0.101227,-1.923861 0.235945,-0.02456 0.511517,-0.03507 0.798526,-0.03406 z m 7.448928,0.0023 c 0.18251,-0.0017 0.336503,0.0052 0.380148,0.02169 0.07512,0.02824 0.101225,0.367838 0.101225,1.315406 0,0.702541 -0.02392,1.396974 -0.05317,1.543163 -0.07613,0.380658 -0.556684,0.826843 -1.022284,0.949282 -0.508487,0.133692 -1.476897,0.11937 -1.879074,-0.02784 -0.373052,-0.136569 -0.72214,-0.446039 -0.84914,-0.752653 -0.05615,-0.135545 -0.08069,-0.735556 -0.06664,-1.629101 l 0.02241,-1.414807 0.404908,0.0088 c 0.222779,0.0052 0.46895,0.01316 0.546918,0.01858 0.12909,0.0089 0.141644,0.133274 0.141644,1.390596 0,1.358062 0.0034,1.384198 0.198996,1.579765 0.284694,0.284696 0.937673,0.284696 1.22237,0 0.195564,-0.195567 0.198813,-0.221703 0.198813,-1.579765 0,-1.044383 0.02482,-1.383685 0.101409,-1.392596 0.157912,-0.0183 0.368959,-0.02886 0.551469,-0.03056 z m 18.079763,0.0011 c 0.884369,0.0034 1.7757,0.01463 1.863957,0.03056 0.03344,0.006 0.06081,0.155306 0.06081,0.331716 v 0.320619 l -0.668353,0.02372 -0.668356,0.02349 -0.04044,1.539155 -0.04061,1.539163 -0.50741,0.02417 c -0.359918,0.01716 -0.518649,-0.0065 -0.54619,-0.08102 -0.02135,-0.05784 -0.04823,-0.761383 -0.05972,-1.563371 l -0.02074,-1.45814 -0.668351,-0.02349 -0.66835,-0.02372 v -0.315145 c 0,-0.232508 0.03727,-0.324895 0.141824,-0.351563 0.06016,-0.0153 0.937538,-0.0196 1.821908,-0.01616 z m -7.634262,0.0011 v 0.341729 0.341921 l -0.992428,0.02281 -0.992425,0.02281 -0.02474,0.341549 -0.02474,0.341735 0.956378,0.02293 0.956376,0.02281 -0.0104,0.24305 c -0.0057,0.133671 -0.01479,0.287504 -0.02021,0.341737 -0.007,0.06953 -0.278625,0.105302 -0.921239,0.121436 l -0.911405,0.02293 -0.02424,0.46572 -0.02439,0.4659 h 1.016818 1.016643 v 0.364417 0.364489 h -1.581219 -1.581216 l 0.02185,-1.910573 0.02167,-1.910743 1.559547,-0.01333 z m 15.027117,0 1.216178,0.01203 c 0.668946,0.0065 1.369825,0.05325 1.557367,0.103773 0.475758,0.128109 0.750279,0.50139 0.750279,1.019739 0,0.358739 -0.03063,0.420281 -0.371224,0.746637 -0.204205,0.195651 -0.353237,0.399159 -0.331174,0.45207 0.02209,0.05292 0.317117,0.415039 0.655611,0.804896 l 0.615371,0.708771 h -0.677098 c -0.665911,0 -0.68058,-0.0045 -0.871717,-0.257079 -0.106905,-0.141436 -0.348258,-0.423884 -0.53635,-0.627746 -0.188098,-0.203874 -0.342914,-0.398058 -0.344284,-0.431491 -7.94e-4,-0.03344 -0.148042,-0.06081 -0.32625,-0.06081 h -0.32408 v 0.688558 0.68857 H 87.521456 86.99348 l 0.02188,-1.923861 z m -41.071594,0.0262 c 0.556937,0 1.051319,0.0028 1.098569,0.0073 0.04891,0.004 0.07512,0.137822 0.06081,0.310782 -0.0244,0.294872 -0.0354,0.304603 -0.369586,0.328802 l -0.344281,0.02497 v 1.246225 1.2464 l 0.344281,0.02497 c 0.334703,0.02417 0.344281,0.03276 0.344281,0.308421 v 0.283469 l -1.115502,0.02259 c -1.19914,0.02423 -1.237849,0.01106 -1.179402,-0.401446 0.02243,-0.158321 0.08135,-0.192054 0.371044,-0.213011 l 0.344282,-0.02497 V 62.329205 61.08298 l -0.344282,-0.02497 c -0.334194,-0.02412 -0.344991,-0.03393 -0.369407,-0.328802 -0.01432,-0.17296 0.01173,-0.306699 0.06063,-0.310787 0.04724,-0.004 0.541632,-0.0073 1.098569,-0.0073 z m 38.193901,0.0034 c 0.306059,0.0028 0.522015,0.02056 0.550201,0.04733 0.01204,0.0114 0.252089,0.582043 0.533442,1.26807 0.28135,0.686034 0.569952,1.374852 0.641408,1.530791 0.155549,0.339509 0.383056,0.898628 0.383056,0.941447 0,0.01683 -0.248301,0.03056 -0.551831,0.03056 H 85.163561 L 84.986777,63.82778 84.809802,63.422685 h -0.768485 -0.768482 l -0.205372,0.405095 -0.205182,0.405093 h -0.525245 c -0.288867,0 -0.525079,-0.01288 -0.525079,-0.02858 0,-0.03214 0.690515,-1.705496 0.807273,-1.956266 0.04153,-0.08911 0.227621,-0.535558 0.413647,-0.99224 l 0.338275,-0.830391 0.455699,-0.0088 c 0.118441,-0.0023 0.230437,-0.0028 0.332447,-0.0023 z m 12.718555,0 c 0.306059,0.0028 0.521838,0.02056 0.550008,0.04733 0.01204,0.0114 0.2521,0.582043 0.533453,1.26807 0.281352,0.686034 0.569963,1.374852 0.641403,1.530791 0.155554,0.339509 0.383063,0.898628 0.383063,0.941447 0,0.01683 -0.248292,0.03056 -0.55183,0.03056 h -0.551831 l -0.176975,-0.40492 -0.176786,-0.405093 h -0.768657 -0.768488 l -0.205184,0.405093 -0.205373,0.405095 h -0.525065 c -0.28887,0 -0.525254,-0.01288 -0.525254,-0.02858 0,-0.03214 0.690507,-1.705495 0.807268,-1.956265 0.04142,-0.08911 0.227632,-0.535559 0.413636,-0.992242 l 0.338286,-0.830388 0.455697,-0.0088 c 0.118441,-0.0023 0.230624,-0.0028 0.332629,-0.0023 z m -42.098423,0.66895 c -0.05157,-0.0011 -0.101735,9e-5 -0.149656,0.004 l -0.320429,0.02621 -0.02257,1.130244 c -0.01246,0.621629 -0.0045,1.17746 0.01767,1.235301 0.05412,0.141012 0.489934,0.132902 1.00062,-0.0188 0.575154,-0.170797 0.838872,-0.518682 0.844224,-1.113497 0.0041,-0.466629 -0.101573,-0.73859 -0.373411,-0.960932 -0.205812,-0.168339 -0.635413,-0.294611 -0.996432,-0.302586 z m 33.881743,0.006 c -0.04023,7.9e-5 -0.08199,0.0011 -0.125442,0.0028 l -0.445688,0.02095 -0.02408,0.506319 -0.02424,0.506313 h 0.445685 c 0.537303,0 0.846355,-0.126739 0.907953,-0.372134 0.111939,-0.446016 -0.130723,-0.665907 -0.734262,-0.664715 z m -4.61912,0.414553 c -0.109646,0.03597 -0.540613,1.104982 -0.483015,1.198165 v 3.44e-4 c 0.05822,0.094 0.903186,0.09359 0.961472,-0.0011 0.02469,-0.03993 -0.0069,-0.173011 -0.07078,-0.295669 -0.06362,-0.122667 -0.16274,-0.381944 -0.220109,-0.576229 -0.05738,-0.194296 -0.141695,-0.340939 -0.187526,-0.325899 z m 12.71837,0 c -0.109635,0.03597 -0.540605,1.104982 -0.483013,1.198165 v 3.44e-4 c 0.05822,0.094 0.903185,0.09359 0.961472,-0.0011 0.02471,-0.03993 -0.0066,-0.173011 -0.07088,-0.295669 -0.06364,-0.122667 -0.162735,-0.381944 -0.220112,-0.576229 -0.05734,-0.194296 -0.141692,-0.340939 -0.187529,-0.325899 z"
       id="path20"
       inkscape:connector-curvature="0" />
  </g>
</svg>
